#!OML:ASF E:\Steps\Project 1\Capture day 1\Session 2\Subject.ASF
:FULLY-SPECIFIED
:DEGREES
726
root 9.2795 19.9164 -9.91031 -154.81 -1.6447 179.237
lowerback -16.9996 -2.42819 -2.12037
upperback 2.14325 -2.9618 1.26266
thorax 12.1457 -1.5957 1.79042
lowerneck 4.41264 -2.44568 3.26486
upperneck 8.35278 -2.77337 1.61776
head 1.83442 -1.04875 -0.0396161
rclavicle 5.64673e-015 9.51682e-015
rhumerus -40.6734 -15.1825 -76.4688
rradius 42.7805
rwrist -7.32438
rhand -5.7811 -51.9034
rfingers 7.12502
rthumb 20.0428 -80.8896
lclavicle 5.64673e-015 9.51682e-015
lhumerus -31.4868 1.01797 81.0749
lradius 29.2877
lwrist -0.298054
lhand -19.2997 -13.4482
lfingers 7.12502
lthumb 7.01582 16.4155
rfemur -48.1655 5.93307 20.9415
rtibia 33.2668
rfoot -21.2064 -9.69269
rtoes -14.6135
lfemur -43.0326 -2.18499 -20.2849
ltibia 74.7679
lfoot 2.11001 5.9488
ltoes -29.5891
727
root 9.30414 19.9535 -9.97169 -154.883 -1.46212 179.153
lowerback -16.8579 -2.36683 -2.41797
upperback 2.15551 -2.81436 1.22872
thorax 12.0826 -1.54505 1.96673
lowerneck 4.38443 -2.52116 3.225
upperneck 8.34397 -2.88746 1.87219
head 1.84031 -1.10064 0.0456361
rclavicle -7.00716e-015 -3.35449e-015
rhumerus -40.3645 -15.0433 -76.5515
rradius 42.9333
rwrist -7.42052
rhand -6.27853 -51.7262
rfingers 7.12502
rthumb 19.5646 -80.7618
lclavicle -7.00716e-015 -3.35449e-015
lhumerus -31.5902 1.32991 80.9566
lradius 29.2559
lwrist -0.732064
lhand -19.837 -14.1879
lfingers 7.12502
lthumb 6.49718 15.6924
rfemur -47.5431 6.05442 20.9472
rtibia 32.7588
rfoot -20.905 -9.68907
rtoes -16.0785
lfemur -44.7648 -1.96497 -20.5183
ltibia 77.6285
lfoot 1.31511 5.58329
ltoes -30.6397
728
root 9.32198 19.9882 -10.0414 -154.933 -1.25409 179.129
lowerback -16.9732 -2.25654 -2.55452
upperback 2.18807 -2.63005 1.18529
thorax 12.1808 -1.4669 2.04331
lowerneck 4.30767 -2.83314 3.02672
upperneck 8.71163 -3.30456 1.96192
head 1.9755 -1.29508 0.102503
rclavicle -5.60324e-015 -1.66482e-015
rhumerus -40.3214 -15.0205 -76.5889
rradius 43.5988
rwrist -7.4173
rhand -6.48164 -51.912
rfingers 7.12502
rthumb 19.3693 -80.9673
lclavicle -5.60324e-015 -1.66482e-015
lhumerus -31.6613 1.58603 80.8684
lradius 29.262
lwrist -0.943463
lhand -20.0997 -14.4757
lfingers 7.12502
lthumb 6.24353 15.4123
rfemur -46.9053 6.15055 21.0249
rtibia 32.2271
rfoot -17.9009 -10.1169
rtoes -30.9279
lfemur -46.4532 -1.79358 -20.729
ltibia 80.1495
lfoot 0.534154 5.4951
ltoes -32.5101
729
root 9.33671 20.0222 -10.1101 -154.987 -1.09187 179.133
lowerback -17.0937 -2.13622 -2.60099
upperback 2.21966 -2.45328 1.15934
thorax 12.2773 -1.38717 2.08647
lowerneck 3.66341 -2.7882 2.73277
upperneck 9.27391 -3.29451 2.24654
head 2.28269 -1.27056 0.229427
rclavicle -1.34552e-014 6.65929e-015
rhumerus -39.6875 -15.1557 -76.4864
rradius 43.1545
rwrist -7.26843
rhand -6.43137 -51.8488
rfingers 7.12502
rthumb 19.4176 -80.8992
lclavicle -1.34552e-014 6.65929e-015
lhumerus -31.693 1.73606 80.8316
lradius 29.2307
lwrist -1.10868
lhand -20.1038 -14.2374
lfingers 7.12502
lthumb 6.23957 15.6507
rfemur -46.1104 6.18101 21.1618
rtibia 31.4444
rfoot -17.8644 -9.95221
rtoes -30.4312
lfemur -48.1574 -1.72451 -20.9003
ltibia 82.5247
lfoot -0.252111 5.52892
ltoes -33.3091
730
root 9.35789 20.0544 -10.1737 -155.008 -1.04372 179.103
lowerback -17.0305 -2.06378 -2.75723
upperback 2.18101 -2.32373 1.14581
thorax 12.1943 -1.33594 2.19823
lowerneck 4.24398 -2.82133 2.92054
upperneck 8.86011 -3.29374 2.1268
head 2.03993 -1.28028 0.170147
rclavicle 7.26806e-015 6.06293e-015
rhumerus -39.5357 -15.0362 -76.4348
rradius 43.3951
rwrist -7.4147
rhand -6.20007 -52.2188
rfingers 7.12502
rthumb 19.64 -81.2467
lclavicle 7.26806e-015 6.06293e-015
lhumerus -31.8158 1.89556 80.7627
lradius 29.1665
lwrist -1.25619
lhand -20.139 -14.2787
lfingers 7.12502
lthumb 6.20564 15.6104
rfemur -45.2215 6.1613 21.2648
rtibia 30.3589
rfoot -17.864 -9.80587
rtoes -30.2121
lfemur -49.9377 -1.69842 -21.0327
ltibia 84.8606
lfoot -1.06976 5.5709
ltoes -33.8367
731
root 9.38103 20.0861 -10.2358 -155.068 -0.986939 179.045
lowerback -16.8593 -2.01809 -2.96018
upperback 2.11975 -2.22237 1.12266
thorax 12.0252 -1.29929 2.32042
lowerneck 4.33199 -2.71106 2.79689
upperneck 8.92885 -3.1386 2.17726
head 2.05041 -1.20034 0.208039
rclavicle -9.98893e-015 -2.98177e-016
rhumerus -39.4876 -14.8169 -76.4414
rradius 43.7424
rwrist -7.65183
rhand -5.82184 -52.7315
rfingers 7.12502
rthumb 20.0036 -81.7219
lclavicle -9.98893e-015 -2.98177e-016
lhumerus -31.951 2.20175 80.6277
lradius 29.0947
lwrist -1.24797
lhand -20.0641 -14.2714
lfingers 7.12502
lthumb 6.27793 15.6156
rfemur -44.5112 6.11669 21.3392
rtibia 29.6221
rfoot -17.5697 -9.69029
rtoes -30.8491
lfemur -51.698 -1.6494 -21.1816
ltibia 87.1093
lfoot -1.90198 5.55069
ltoes -34.6042
